<mxfile host="Electron" modified="2024-01-22T11:26:54.212Z" agent="Mozilla/5.0 (Windows NT 10.0; Win64; x64) AppleWebKit/537.36 (KHTML, like Gecko) draw.io/22.0.3 Chrome/114.0.5735.289 Electron/25.8.4 Safari/537.36" etag="90TjyGm_HIMwTgeyAlw9" version="22.0.3" type="device">
  <diagram name="Seite-1" id="aDDhOuQn_D8EaO612Rde">
    <mxGraphModel dx="648" dy="835" grid="1" gridSize="10" guides="1" tooltips="1" connect="1" arrows="1" fold="1" page="1" pageScale="1" pageWidth="827" pageHeight="1169" math="0" shadow="0">
      <root>
        <mxCell id="0" />
        <mxCell id="1" parent="0" />
        <mxCell id="tGpT2BLzvzMgG4cjHZnH-1" value="" style="swimlane;startSize=0;" vertex="1" parent="1">
          <mxGeometry x="100" y="40" width="650" height="550" as="geometry" />
        </mxCell>
        <mxCell id="tGpT2BLzvzMgG4cjHZnH-30" style="rounded=0;orthogonalLoop=1;jettySize=auto;html=1;exitX=1;exitY=0.5;exitDx=0;exitDy=0;dashed=1;endArrow=none;endFill=0;" edge="1" parent="tGpT2BLzvzMgG4cjHZnH-1" source="tGpT2BLzvzMgG4cjHZnH-10" target="tGpT2BLzvzMgG4cjHZnH-28">
          <mxGeometry relative="1" as="geometry" />
        </mxCell>
        <mxCell id="tGpT2BLzvzMgG4cjHZnH-31" value="&amp;lt;include&amp;gt;" style="edgeLabel;html=1;align=center;verticalAlign=middle;resizable=0;points=[];" vertex="1" connectable="0" parent="tGpT2BLzvzMgG4cjHZnH-30">
          <mxGeometry x="-0.1436" relative="1" as="geometry">
            <mxPoint as="offset" />
          </mxGeometry>
        </mxCell>
        <mxCell id="tGpT2BLzvzMgG4cjHZnH-10" value="Anmelden" style="ellipse;whiteSpace=wrap;html=1;" vertex="1" parent="tGpT2BLzvzMgG4cjHZnH-1">
          <mxGeometry x="60" y="40" width="140" height="70" as="geometry" />
        </mxCell>
        <mxCell id="tGpT2BLzvzMgG4cjHZnH-26" style="rounded=0;orthogonalLoop=1;jettySize=auto;html=1;exitX=1;exitY=0.5;exitDx=0;exitDy=0;entryX=0;entryY=0.5;entryDx=0;entryDy=0;endArrow=none;endFill=0;dashed=1;" edge="1" parent="tGpT2BLzvzMgG4cjHZnH-1" source="tGpT2BLzvzMgG4cjHZnH-11" target="tGpT2BLzvzMgG4cjHZnH-25">
          <mxGeometry relative="1" as="geometry" />
        </mxCell>
        <mxCell id="tGpT2BLzvzMgG4cjHZnH-32" value="Text" style="edgeLabel;html=1;align=center;verticalAlign=middle;resizable=0;points=[];" vertex="1" connectable="0" parent="tGpT2BLzvzMgG4cjHZnH-26">
          <mxGeometry x="-0.0808" relative="1" as="geometry">
            <mxPoint as="offset" />
          </mxGeometry>
        </mxCell>
        <mxCell id="tGpT2BLzvzMgG4cjHZnH-33" value="&amp;lt;include&amp;gt;" style="edgeLabel;html=1;align=center;verticalAlign=middle;resizable=0;points=[];" vertex="1" connectable="0" parent="tGpT2BLzvzMgG4cjHZnH-26">
          <mxGeometry x="-0.0692" y="-3" relative="1" as="geometry">
            <mxPoint x="1" as="offset" />
          </mxGeometry>
        </mxCell>
        <mxCell id="tGpT2BLzvzMgG4cjHZnH-11" value="Benutzeroberfläche anpassen" style="ellipse;whiteSpace=wrap;html=1;" vertex="1" parent="tGpT2BLzvzMgG4cjHZnH-1">
          <mxGeometry x="60" y="120" width="140" height="70" as="geometry" />
        </mxCell>
        <mxCell id="tGpT2BLzvzMgG4cjHZnH-27" value="" style="rounded=0;orthogonalLoop=1;jettySize=auto;html=1;endArrow=none;endFill=0;dashed=1;" edge="1" parent="tGpT2BLzvzMgG4cjHZnH-1" source="tGpT2BLzvzMgG4cjHZnH-12" target="tGpT2BLzvzMgG4cjHZnH-25">
          <mxGeometry relative="1" as="geometry" />
        </mxCell>
        <mxCell id="tGpT2BLzvzMgG4cjHZnH-34" value="&amp;lt;include&amp;gt;" style="edgeLabel;html=1;align=center;verticalAlign=middle;resizable=0;points=[];" vertex="1" connectable="0" parent="tGpT2BLzvzMgG4cjHZnH-27">
          <mxGeometry x="-0.0538" relative="1" as="geometry">
            <mxPoint as="offset" />
          </mxGeometry>
        </mxCell>
        <mxCell id="tGpT2BLzvzMgG4cjHZnH-12" value="Visualisierung anpassen" style="ellipse;whiteSpace=wrap;html=1;" vertex="1" parent="tGpT2BLzvzMgG4cjHZnH-1">
          <mxGeometry x="60" y="200" width="140" height="70" as="geometry" />
        </mxCell>
        <mxCell id="tGpT2BLzvzMgG4cjHZnH-13" value="Export eines Profils" style="ellipse;whiteSpace=wrap;html=1;" vertex="1" parent="tGpT2BLzvzMgG4cjHZnH-1">
          <mxGeometry x="60" y="280" width="140" height="70" as="geometry" />
        </mxCell>
        <mxCell id="tGpT2BLzvzMgG4cjHZnH-20" style="rounded=0;orthogonalLoop=1;jettySize=auto;html=1;exitX=0;exitY=0.5;exitDx=0;exitDy=0;endArrow=none;endFill=0;" edge="1" parent="tGpT2BLzvzMgG4cjHZnH-1" source="tGpT2BLzvzMgG4cjHZnH-14">
          <mxGeometry relative="1" as="geometry">
            <mxPoint x="-30" y="240" as="targetPoint" />
          </mxGeometry>
        </mxCell>
        <mxCell id="tGpT2BLzvzMgG4cjHZnH-14" value="Import eines Profils" style="ellipse;whiteSpace=wrap;html=1;" vertex="1" parent="tGpT2BLzvzMgG4cjHZnH-1">
          <mxGeometry x="60" y="360" width="140" height="70" as="geometry" />
        </mxCell>
        <mxCell id="tGpT2BLzvzMgG4cjHZnH-23" value="Musikquelle bieten" style="ellipse;whiteSpace=wrap;html=1;" vertex="1" parent="tGpT2BLzvzMgG4cjHZnH-1">
          <mxGeometry x="60" y="440" width="140" height="70" as="geometry" />
        </mxCell>
        <mxCell id="tGpT2BLzvzMgG4cjHZnH-25" value="Daten speichern" style="ellipse;whiteSpace=wrap;html=1;" vertex="1" parent="tGpT2BLzvzMgG4cjHZnH-1">
          <mxGeometry x="300" y="140" width="140" height="70" as="geometry" />
        </mxCell>
        <mxCell id="tGpT2BLzvzMgG4cjHZnH-28" value="Anmeldedaten überprüfen" style="ellipse;whiteSpace=wrap;html=1;" vertex="1" parent="tGpT2BLzvzMgG4cjHZnH-1">
          <mxGeometry x="300" y="30" width="140" height="70" as="geometry" />
        </mxCell>
        <mxCell id="tGpT2BLzvzMgG4cjHZnH-16" style="rounded=0;orthogonalLoop=1;jettySize=auto;html=1;exitX=1;exitY=0.3333333333333333;exitDx=0;exitDy=0;exitPerimeter=0;entryX=0;entryY=0.5;entryDx=0;entryDy=0;endArrow=none;endFill=0;" edge="1" parent="1" source="tGpT2BLzvzMgG4cjHZnH-2" target="tGpT2BLzvzMgG4cjHZnH-10">
          <mxGeometry relative="1" as="geometry" />
        </mxCell>
        <mxCell id="tGpT2BLzvzMgG4cjHZnH-2" value="User" style="shape=umlActor;verticalLabelPosition=bottom;verticalAlign=top;html=1;outlineConnect=0;" vertex="1" parent="1">
          <mxGeometry x="40" y="260" width="30" height="60" as="geometry" />
        </mxCell>
        <mxCell id="tGpT2BLzvzMgG4cjHZnH-24" style="rounded=0;orthogonalLoop=1;jettySize=auto;html=1;exitX=0;exitY=0.3333333333333333;exitDx=0;exitDy=0;exitPerimeter=0;entryX=1;entryY=0.5;entryDx=0;entryDy=0;endArrow=none;endFill=0;" edge="1" parent="1" source="tGpT2BLzvzMgG4cjHZnH-3" target="tGpT2BLzvzMgG4cjHZnH-23">
          <mxGeometry relative="1" as="geometry" />
        </mxCell>
        <mxCell id="tGpT2BLzvzMgG4cjHZnH-3" value="Streaming&lt;br&gt;Dienst" style="shape=umlActor;verticalLabelPosition=bottom;verticalAlign=top;html=1;outlineConnect=0;" vertex="1" parent="1">
          <mxGeometry x="770" y="480" width="30" height="60" as="geometry" />
        </mxCell>
        <mxCell id="tGpT2BLzvzMgG4cjHZnH-22" style="rounded=0;orthogonalLoop=1;jettySize=auto;html=1;exitX=0;exitY=0.3333333333333333;exitDx=0;exitDy=0;exitPerimeter=0;entryX=1;entryY=0.5;entryDx=0;entryDy=0;endArrow=none;endFill=0;" edge="1" parent="1" source="tGpT2BLzvzMgG4cjHZnH-8" target="tGpT2BLzvzMgG4cjHZnH-28">
          <mxGeometry relative="1" as="geometry" />
        </mxCell>
        <mxCell id="tGpT2BLzvzMgG4cjHZnH-8" value="Datenbank" style="shape=umlActor;verticalLabelPosition=bottom;verticalAlign=top;html=1;outlineConnect=0;" vertex="1" parent="1">
          <mxGeometry x="770" y="100" width="30" height="60" as="geometry" />
        </mxCell>
        <mxCell id="tGpT2BLzvzMgG4cjHZnH-17" style="rounded=0;orthogonalLoop=1;jettySize=auto;html=1;exitX=0;exitY=0.5;exitDx=0;exitDy=0;endArrow=none;endFill=0;entryX=1;entryY=0.3333333333333333;entryDx=0;entryDy=0;entryPerimeter=0;" edge="1" parent="1" source="tGpT2BLzvzMgG4cjHZnH-11" target="tGpT2BLzvzMgG4cjHZnH-2">
          <mxGeometry relative="1" as="geometry">
            <mxPoint x="70" y="120" as="targetPoint" />
          </mxGeometry>
        </mxCell>
        <mxCell id="tGpT2BLzvzMgG4cjHZnH-19" style="rounded=0;orthogonalLoop=1;jettySize=auto;html=1;exitX=0;exitY=0.5;exitDx=0;exitDy=0;endArrow=none;endFill=0;entryX=1;entryY=0.3333333333333333;entryDx=0;entryDy=0;entryPerimeter=0;" edge="1" parent="1" source="tGpT2BLzvzMgG4cjHZnH-13" target="tGpT2BLzvzMgG4cjHZnH-2">
          <mxGeometry relative="1" as="geometry">
            <mxPoint x="70" y="120" as="targetPoint" />
          </mxGeometry>
        </mxCell>
        <mxCell id="tGpT2BLzvzMgG4cjHZnH-21" style="rounded=0;orthogonalLoop=1;jettySize=auto;html=1;exitX=0;exitY=0.5;exitDx=0;exitDy=0;endArrow=none;endFill=0;entryX=1;entryY=0.3333333333333333;entryDx=0;entryDy=0;entryPerimeter=0;" edge="1" parent="1" source="tGpT2BLzvzMgG4cjHZnH-23" target="tGpT2BLzvzMgG4cjHZnH-2">
          <mxGeometry relative="1" as="geometry">
            <mxPoint x="70" y="120" as="targetPoint" />
            <mxPoint x="170" y="535" as="sourcePoint" />
          </mxGeometry>
        </mxCell>
        <mxCell id="tGpT2BLzvzMgG4cjHZnH-18" style="rounded=0;orthogonalLoop=1;jettySize=auto;html=1;exitX=0;exitY=0.5;exitDx=0;exitDy=0;endArrow=none;endFill=0;entryX=1;entryY=0.3333333333333333;entryDx=0;entryDy=0;entryPerimeter=0;" edge="1" parent="1" source="tGpT2BLzvzMgG4cjHZnH-12" target="tGpT2BLzvzMgG4cjHZnH-2">
          <mxGeometry relative="1" as="geometry">
            <mxPoint x="70" y="120" as="targetPoint" />
          </mxGeometry>
        </mxCell>
        <mxCell id="tGpT2BLzvzMgG4cjHZnH-29" style="rounded=0;orthogonalLoop=1;jettySize=auto;html=1;exitX=1;exitY=0.5;exitDx=0;exitDy=0;entryX=0;entryY=0.3333333333333333;entryDx=0;entryDy=0;entryPerimeter=0;endArrow=none;endFill=0;" edge="1" parent="1" source="tGpT2BLzvzMgG4cjHZnH-25" target="tGpT2BLzvzMgG4cjHZnH-8">
          <mxGeometry relative="1" as="geometry">
            <mxPoint x="780" y="240" as="targetPoint" />
          </mxGeometry>
        </mxCell>
      </root>
    </mxGraphModel>
  </diagram>
</mxfile>
